<?xml version="1.0" encoding="utf-8"?>
<!-- Generator: Adobe Illustrator 25.0.1, SVG Export Plug-In . SVG Version: 6.00 Build 0)  -->
<svg version="1.1" id="レイヤー_1" xmlns="http://www.w3.org/2000/svg" xmlns:xlink="http://www.w3.org/1999/xlink" x="0px"
	 y="0px" viewBox="0 0 14.4 14.4" style="enable-background:new 0 0 14.4 14.4;" xml:space="preserve">
<style type="text/css">
	.st0{fill:#4B4B4B;}
</style>
<path class="st0" d="M13.4,1.1c-0.1-0.1-0.2-0.2-0.2-0.2c-1.4-1.3-3.6-1.2-4.9,0.2l-7.5,8c-1,1.1-1,2.7,0,3.8
	c0.1,0.1,0.1,0.1,0.2,0.2c0,0,0,0,0,0c1,0.9,2.6,0.8,3.5-0.2l6.4-6.8c0.6-0.6,0.6-1.6,0-2.2l0,0c0,0,0,0,0,0c-0.6-0.6-1.5-0.5-2.1,0
	l-6.1,6.5c-0.2,0.2-0.2,0.5,0,0.6c0.2,0.2,0.5,0.2,0.6,0l6.1-6.5l0,0c0,0,0,0,0,0c0.2-0.2,0.6-0.2,0.8,0c0.3,0.3,0.3,0.7,0,1
	l-6.4,6.8c0,0,0,0-0.1,0.1c0,0,0,0,0,0C3,13,2,13,1.4,12.4c-0.7-0.7-0.7-1.9,0-2.6l7.5-8C8.9,1.7,9,1.6,9.1,1.6
	c1.1-1,2.7-0.9,3.6,0.2c1.1,1.2,1.1,3,0,4.2l-7.2,7.7c-0.1,0.1-0.1,0.2-0.1,0.3c0,0,0,0,0,0c0,0.2,0.2,0.4,0.5,0.4
	c0.1,0,0.2-0.1,0.3-0.1l7.2-7.7C14.8,5,14.8,2.7,13.4,1.1z"/>
</svg>
