<?xml version="1.0" encoding="utf-8"?>
<!-- Generator: Adobe Illustrator 25.0.1, SVG Export Plug-In . SVG Version: 6.00 Build 0)  -->
<svg version="1.1" id="レイヤー_1" xmlns="http://www.w3.org/2000/svg" xmlns:xlink="http://www.w3.org/1999/xlink" x="0px"
	 y="0px" viewBox="0 0 16 16" style="enable-background:new 0 0 16 16;" xml:space="preserve">
<style type="text/css">
	.st0{fill:#033170;}
</style>
<g>
	<rect x="7.2" y="11" class="st0" width="1.4" height="1.3"/>
	<path class="st0" d="M8,4C6.6,3.8,5.5,4.8,5.3,6.1l1.3,0.3C6.7,5.5,7.2,5,8,5c0.6-0.1,1.1,0.4,1.2,1c0,0.1,0,0.1,0,0.2
		c0,0.5-0.2,0.9-0.9,1.6C7.6,8.2,7.3,9,7.3,9.8V10h1c-0.1-0.8,0.3-1.5,1-1.9c0.7-0.4,1.1-1.2,1.2-2C10.5,4.8,9.5,4,8,4z"/>
	<path class="st0" d="M8,0C3.6,0,0,3.6,0,8s3.6,8,8,8s8-3.6,8-8S12.4,0,8,0z M8,15c-3.9,0-7-3.1-7-7c0-3.9,3.1-7,7-7
		c3.9,0,7,3.1,7,7C15,11.9,11.9,15,8,15z"/>
</g>
</svg>
